<svg xmlns="http://www.w3.org/2000/svg" viewBox="0 0 640 480"><path fill="#bd3d44" d="M0 0h640v480H0z"/><path stroke="#fff" stroke-width="37" d="M0 55.3h640M0 129h640M0 203h640M0 277h640M0 351h640M0 425h640"/><path fill="#192f5d" d="M0 0h364.8v258.5H0z"/><g fill="#fff"><path id="a" d="m0-13 3 9h9L5 2l3 9-8-6-8 6 3-9-7-6h9z" transform="translate(40 34)"/><use x="60" href="#a"/><use x="120" href="#a"/><use x="180" href="#a"/><use x="240" href="#a"/><use x="300" href="#a"/><use x="30" y="43" href="#a"/><use x="90" y="43" href="#a"/><use x="150" y="43" href="#a"/><use x="210" y="43" href="#a"/><use x="270" y="43" href="#a"/><use y="86" href="#a"/><use x="60" y="86" href="#a"/><use x="120" y="86" href="#a"/><use x="180" y="86" href="#a"/><use x="240" y="86" href="#a"/><use x="300" y="86" href="#a"/><use x="30" y="129" href="#a"/><use x="90" y="129" href="#a"/><use x="150" y="129" href="#a"/><use x="210" y="129" href="#a"/><use x="270" y="129" href="#a"/><use y="172" href="#a"/><use x="60" y="172" href="#a"/><use x="120" y="172" href="#a"/><use x="180" y="172" href="#a"/><use x="240" y="172" href="#a"/><use x="300" y="172" href="#a"/><use x="30" y="215" href="#a"/><use x="90" y="215" href="#a"/><use x="150" y="215" href="#a"/><use x="210" y="215" href="#a"/><use x="270" y="215" href="#a"/></g></svg>